# xmcd
#
# Track frame offsets: 
#        150
#        17583
#        35369
#        54337
#        75526
#        97866
#        114219
#        134432
#        154863
#        169307
#        184624
#        203411
#        224436
#        246851
#
# Disc length: 3719 seconds
#
# Revision: 1
# Processed by: cddbd v1.5.2PL0 Copyright (c) Steve Scherf et al.
# Submitted via: ExactAudioCopy v0.95b4
#
DISCID=ab0e850e
DTITLE=Percey Sledge and the Aces Band - Live from Louisiana
DYEAR=1900
DGENRE=Soul
TTITLE0=My special prayer (live)
TTITLE1=Cover me (live)
TTITLE2=Take time to know her (live)
TTITLE3=My girl (live)
TTITLE4=Warm and tender love (live)
TTITLE5=Bring it on home to me (live)
TTITLE6=Out of left field (live)
TTITLE7=Sitting on the dock of the bay (live)
TTITLE8=Going home tomorrow  (live)
TTITLE9=Dark end of the street (live)
TTITLE10=I wish it would rain (live)
TTITLE11=First you cry (live)
TTITLE12=A whiter shade of pale (live)
TTITLE13=When a man loves a woman (live)
EXTD=percey sledge
EXTT0=
EXTT1=
EXTT2=
EXTT3=
EXTT4=
EXTT5=
EXTT6=
EXTT7=
EXTT8=
EXTT9=
EXTT10=
EXTT11=
EXTT12=
EXTT13=
PLAYORDER=
